:SAMPLES-PER-SECOND 30
:FRAME-RANGE 1-3549
:FULLY-SPECIFIED
:DEGREES
3217
root  82.3888 23.4102 -48.34 -172.276 -67.9418 178.115
RightUpLeg  -65.0916 -4.84047 -3.22859
RightLeg  113.044 -3.02448 7.26762
RightFoot  -46.2119 -0.14636 0.5519
RightToes  1.218e-010 1.26228e-014 -6.01869e-014
Spine  18.054 1.27644 -1.66849
Spine1  -2.94788 2.52571 -4.66917
HEad  -4.45996 5.35742 -4.45366
LeftShoulder1  1.59439 -6.71964 -8.69923
LeftArm  -30.4557 -41.7644 -37.0317
LeftForeArm  -179.453 -80.9369 -121.914
LeftHand  0.938151 13.9374 13.186
RightShoulder  1.80651 6.73925 10.8772
RightArm  -17.203 49.924 49.3729
RightForeArm  -154.019 79.573 134.992
RightHand  2.53306 -13.8911 -33.3645
LeftUpLeg  -65.7354 24.3876 1.73979
LeftLeg  113.261 3.19189 -7.41655
LeftFoot  -40.9275 -0.520506 -2.91392
LeftToes  -1.43952e-010 7.51141e-011 -1.22592e-011
3218
root  82.0615 22.1353 -48.3521 -172.922 -67.8441 177.427
RightUpLeg  -66.3552 -5.62164 -4.80017
RightLeg  119.002 -5.10038 9.11798
RightFoot  -46.8197 -0.334037 -0.0308214
RightToes  1.218e-010 1.26228e-014 -6.01869e-014
Spine  18.4059 1.49155 -1.6616
Spine1  -3.25863 2.65266 -4.81597
HEad  -5.50009 5.10447 -4.53844
LeftShoulder1  1.59462 -7.11585 -8.02437
LeftArm  -32.055 -42.5593 -36.2422
LeftForeArm  -172.589 -80.1426 -128.847
LeftHand  0.894695 14.2796 12.1681
RightShoulder  1.79256 7.03116 10.1633
RightArm  -18.8895 51.1109 48.3686
RightForeArm  -148.747 78.5 140.287
RightHand  2.60441 -14.3149 -32.716
LeftUpLeg  -66.3879 24.8653 2.83402
LeftLeg  118.912 4.70981 -8.38177
LeftFoot  -41.5805 -0.623414 -3.24427
LeftToes  -1.43952e-010 7.51141e-011 -1.22592e-011
3219
root  81.7357 20.9615 -48.3554 -174.496 -67.7513 177.75
RightUpLeg  -66.9394 -5.98495 -6.06834
RightLeg  124.035 -7.13287 10.3187
RightFoot  -47.8091 -0.470211 -0.420906
RightToes  1.218e-010 1.26228e-014 -6.01869e-014
Spine  18.8922 1.66451 -1.32062
Spine1  -3.58288 2.74303 -4.81505
HEad  -6.94761 4.8942 -4.61808
LeftShoulder1  1.54862 -7.23582 -7.33928
LeftArm  -33.6261 -43.4849 -35.5589
LeftForeArm  -167.977 -79.4481 -133.452
LeftHand  0.859617 14.5886 11.3621
RightShoulder  1.7402 7.02649 9.605
RightArm  -20.1381 52.4837 47.7053
RightForeArm  -144.059 77.316 144.797
RightHand  2.60324 -14.5773 -31.8318
LeftUpLeg  -66.836 25.2017 4.32637
LeftLeg  124.067 6.1444 -8.86382
LeftFoot  -41.952 -0.750849 -3.67707
LeftToes  -1.43952e-010 7.51141e-011 -1.22592e-011
3220
root  81.4279 19.9379 -48.3656 -175.347 -67.6315 177.5
RightUpLeg  -67.1234 -6.09153 -7.5706
RightLeg  128.263 -9.08764 11.1512
RightFoot  -49.1361 -0.527412 -0.543055
RightToes  1.218e-010 1.26228e-014 -6.01869e-014
Spine  19.294 1.83931 -1.34827
Spine1  -4.058 2.79981 -4.94584
HEad  -8.12735 4.80424 -4.24106
LeftShoulder1  1.53563 -7.53282 -6.75199
LeftArm  -35.1364 -44.0595 -34.7202
LeftForeArm  -162.926 -78.607 -137.993
LeftHand  0.858423 14.947 10.9481
RightShoulder  1.72666 6.93545 9.62331
RightArm  -21.1366 53.4668 46.9611
RightForeArm  -139.92 76.0094 148.701
RightHand  2.68539 -14.9827 -31.4636
LeftUpLeg  -66.7082 25.1511 5.74903
LeftLeg  128.314 7.68887 -9.42127
LeftFoot  -42.7027 -0.960673 -4.34871
LeftToes  -1.43952e-010 7.51141e-011 -1.22592e-011
3221
root  81.1372 19.0715 -48.3847 -176.204 -67.7033 177.445
RightUpLeg  -67.2134 -6.21977 -9.12759
RightLeg  131.905 -11.1265 11.8938
RightFoot  -49.7961 -0.598838 -0.723516
RightToes  1.218e-010 1.26228e-014 -6.01869e-014
Spine  19.5038 1.91267 -1.54733
Spine1  -4.40957 2.67789 -4.6831
HEad  -9.37655 4.7193 -4.08429
LeftShoulder1  1.5078 -7.5202 -6.48135
LeftArm  -36.1589 -44.6589 -33.8972
LeftForeArm  -158.212 -77.5083 -142.581
LeftHand  0.831366 15.5745 10.0203
RightShoulder  1.71958 7.07633 9.2926
RightArm  -22.2744 53.9737 46.2372
RightForeArm  -136.775 74.5161 152.189
RightHand  2.73852 -15.4246 -30.7162
LeftUpLeg  -66.4864 24.7278 7.29239
LeftLeg  131.922 9.13583 -9.79294
LeftFoot  -43.1317 -1.12724 -4.88095
LeftToes  -1.43952e-010 7.51141e-011 -1.22592e-011
3222
root  80.8709 18.3465 -48.4062 -177.206 -67.8724 177.663
RightUpLeg  -67.1858 -6.35572 -10.6888
RightLeg  134.895 -13.2732 12.661
RightFoot  -50.0223 -0.66041 -0.889487
RightToes  1.218e-010 1.26228e-014 -6.01869e-014
Spine  19.8974 1.86011 -1.40463
Spine1  -4.88119 2.55974 -4.91751
HEad  -10.6936 4.50381 -3.68039
LeftShoulder1  1.45063 -7.47567 -5.94904
LeftArm  -36.667 -45.5078 -33.2597
LeftForeArm  -156.235 -76.4033 -146.03
LeftHand  0.755009 15.7334 9.058
RightShoulder  1.69048 6.8841 9.32002
RightArm  -23.1594 54.5773 45.7153
RightForeArm  -134.051 73.1242 154.852
RightHand  2.71227 -15.6502 -29.8142
LeftUpLeg  -66.1633 24.2236 8.98495
LeftLeg  134.862 10.7992 -10.3677
LeftFoot  -43.2367 -1.35134 -5.64941
LeftToes  -1.43952e-010 7.51141e-011 -1.22592e-011
3223
root  80.6436 17.789 -48.4296 -178.55 -67.9979 178.312
RightUpLeg  -66.5871 -6.22456 -11.8485
RightLeg  137.036 -15.0635 13.233
RightFoot  -50.7502 -0.653963 -0.838289
RightToes  1.218e-010 1.26228e-014 -6.01869e-014
Spine  20.1517 1.92345 -1.23735
Spine1  -4.90405 2.53239 -4.84287
HEad  -12.0745 4.2025 -3.64863
LeftShoulder1  1.44577 -7.71773 -5.56614
LeftArm  -36.5604 -46.2083 -33.0589
LeftForeArm  -152.406 -75.2867 -149.166
LeftHand  0.726872 15.9111 8.61897
RightShoulder  1.68665 6.89453 9.25906
RightArm  -24.0154 54.9794 44.9275
RightForeArm  -132.169 71.954 156.746
RightHand  2.7592 -15.8927 -29.634
LeftUpLeg  -65.5981 23.9052 10.647
LeftLeg  137.144 12.1141 -10.6828
LeftFoot  -43.3906 -1.48242 -6.0798
LeftToes  -1.43952e-010 7.51141e-011 -1.22592e-011
3224
root  80.4552 17.3788 -48.4566 -178.926 -68.0312 178.426
RightUpLeg  -66.2937 -5.88538 -12.7902
RightLeg  138.678 -16.1577 13.3494
RightFoot  -51.5101 -0.643655 -0.777041
RightToes  1.218e-010 1.26228e-014 -6.01869e-014
Spine  20.158 2.05958 -1.43862
Spine1  -4.91948 2.53411 -4.59942
HEad  -13.235 3.97672 -3.79155
LeftShoulder1  1.44042 -7.89212 -5.28163
LeftArm  -35.4919 -46.806 -33.8112
LeftForeArm  -149.534 -74.3651 -151.374
LeftHand  0.613305 16.2746 7.19311
RightShoulder  1.6662 6.94087 8.952
RightArm  -23.9973 55.1771 44.8682
RightForeArm  -131.103 71.097 157.967
RightHand  2.76335 -16.074 -29.2008
LeftUpLeg  -65.2832 23.5335 11.7157
LeftLeg  138.791 13.0926 -10.8567
LeftFoot  -43.651 -1.60544 -6.45774
LeftToes  -1.43952e-010 7.51141e-011 -1.22592e-011
3225
root  80.3182 17.1086 -48.4727 -178.821 -68.2882 178.41
RightUpLeg  -66.3346 -5.69226 -13.4329
RightLeg  139.86 -16.7444 13.2498
RightFoot  -51.9984 -0.494652 -0.354588
RightToes  1.218e-010 1.26228e-014 -6.01869e-014
Spine  20.2474 2.02549 -1.53779
Spine1  -5.22138 2.4366 -4.51749
HEad  -14.2412 3.82978 -4.00991
LeftShoulder1  1.4739 -8.07153 -5.38457
LeftArm  -34.1931 -47.3536 -34.5662
LeftForeArm  -149.033 -74.1652 -151.805
LeftHand  0.669711 16.2325 7.79661
RightShoulder  1.6884 7.20052 8.7417
RightArm  -23.4948 55.1262 44.9266
RightForeArm  -130.732 70.9136 158.223
RightHand  2.77386 -16.1294 -29.1613
LeftUpLeg  -65.6521 23.0886 11.8972
LeftLeg  139.99 13.2486 -10.5367
LeftFoot  -43.7458 -1.69238 -6.73839
LeftToes  -1.43952e-010 7.51141e-011 -1.22592e-011
3226
root  80.2355 16.9663 -48.4777 -178.385 -68.4189 178.36
RightUpLeg  -66.8053 -5.20236 -14.0242
RightLeg  140.43 -17.1638 13.2896
RightFoot  -52.2051 -0.291045 0.198228
RightToes  1.218e-010 1.26228e-014 -6.01869e-014
Spine  20.417 1.97679 -1.43834
Spine1  -5.58553 2.43445 -4.72268
HEad  -15.732 3.88654 -4.06992
LeftShoulder1  1.51341 -8.34919 -5.41848
LeftArm  -33.4661 -47.7864 -34.926
LeftForeArm  -149.555 -74.7088 -150.691
LeftHand  0.656901 16.1778 7.70113
RightShoulder  1.68864 7.3566 8.48215
RightArm  -22.8088 55.2065 44.9531
RightForeArm  -132.152 71.4531 157.438
RightHand  3.1617 -16.9385 -30.7496
LeftUpLeg  -66.2454 22.8537 11.7588
LeftLeg  140.601 13.3048 -10.3579
LeftFoot  -43.8423 -1.79046 -7.05501
LeftToes  -1.43952e-010 7.51141e-011 -1.22592e-011
